HIERARCHY
ROOT hip
{
  OFFSET 0 0 0
  CHANNELS 6 Xposition Yposition Zposition Zrotation Yrotation Xrotation
  JOINT abdomen
  {
    OFFSET 0 20.6881 -0.73152
    CHANNELS 3 Zrotation Xrotation Yrotation
    JOINT chest
    {
      OFFSET 0 11.7043 -0.48768
      CHANNELS 3 Zrotation Xrotation Yrotation
      JOINT neck
      {
        OFFSET 0 22.1894 -2.19456
        CHANNELS 3 Zrotation Xrotation Yrotation
        JOINT head
        {
          OFFSET -0.24384 7.07133 1.2192
          CHANNELS 3 Zrotation Xrotation Yrotation
          JOINT leftEye
          {
            OFFSET 4.14528 8.04674 8.04672
            CHANNELS 3 Zrotation Xrotation Yrotation
            End Site
            {
              OFFSET 1 0 0
            }
          }
          JOINT rightEye
          {
            OFFSET -3.6576 8.04674 8.04672
            CHANNELS 3 Zrotation Xrotation Yrotation
            End Site
            {
              OFFSET 1 0 0
            }
          }
        }
      }
      JOINT rCollar
      {
        OFFSET -2.68224 19.2634 -4.8768
        CHANNELS 3 Zrotation Xrotation Yrotation
        JOINT rShldr
        {
          OFFSET -8.77824 -1.95073 1.46304
          CHANNELS 3 Zrotation Xrotation Yrotation
          JOINT rForeArm
          {
            OFFSET -28.1742 -1.7115 0.48768
            CHANNELS 3 Zrotation Xrotation Yrotation
            JOINT rHand
            {
              OFFSET -22.5879 0.773209 7.07136
              CHANNELS 3 Zrotation Xrotation Yrotation
              JOINT rThumb1
              {
                OFFSET -1.2192 -0.487915 3.41376
                CHANNELS 3 Zrotation Xrotation Yrotation
                JOINT rThumb2
                {
                  OFFSET -3.37035 -0.52449 3.41376
                  CHANNELS 3 Zrotation Xrotation Yrotation
                  End Site
                  {
                    OFFSET -1.78271 -1.18214 1.43049
                  }
                }
              }
              JOINT rIndex1
              {
                OFFSET -7.75947 0.938293 5.60832
                CHANNELS 3 Zrotation Xrotation Yrotation
                JOINT rIndex2
                {
                  OFFSET -2.54057 -0.884171 1.56538
                  CHANNELS 3 Zrotation Xrotation Yrotation
                  End Site
                  {
                    OFFSET -1.62519 -0.234802 1.16502
                  }
                }
              }
              JOINT rMid1
              {
                OFFSET -8.24714 1.18213 3.41376
                CHANNELS 3 Zrotation Xrotation Yrotation
                JOINT rMid2
                {
                  OFFSET -3.10165 -0.590103 1.0647
                  CHANNELS 3 Zrotation Xrotation Yrotation
                  End Site
                  {
                    OFFSET -2.48547 -0.328903 0.83742
                  }
                }
              }
              JOINT rRing1
              {
                OFFSET -8.82822 0.546677 1.51678
                CHANNELS 3 Zrotation Xrotation Yrotation
                JOINT rRing2
                {
                  OFFSET -2.60934 -0.819778 -0.0198488
                  CHANNELS 3 Zrotation Xrotation Yrotation
                  End Site
                  {
                    OFFSET -2.33842 -0.294052 0.168128
                  }
                }
              }
              JOINT rPinky1
              {
                OFFSET -8.27202 -0.0477905 -0.4584
                CHANNELS 3 Zrotation Xrotation Yrotation
                JOINT rPinky2
                {
                  OFFSET -1.82734 -0.647385 -0.700984
                  CHANNELS 3 Zrotation Xrotation Yrotation
                  End Site
                  {
                    OFFSET -1.69225 -0.51767 -0.607171
                  }
                }
              }
            }
          }
        }
      }
      JOINT lCollar
      {
        OFFSET 2.68224 19.2634 -4.8768
        CHANNELS 3 Zrotation Xrotation Yrotation
        JOINT lShldr
        {
          OFFSET 8.77824 -1.95073 1.46304
          CHANNELS 3 Zrotation Xrotation Yrotation
          JOINT lForeArm
          {
            OFFSET 28.1742 -1.7115 0.48768
            CHANNELS 3 Zrotation Xrotation Yrotation
            JOINT lHand
            {
              OFFSET 22.5879 0.773209 7.07136
              CHANNELS 3 Zrotation Xrotation Yrotation
              JOINT lThumb1
              {
                OFFSET 1.2192 -0.487915 3.41376
                CHANNELS 3 Zrotation Xrotation Yrotation
                JOINT lThumb2
                {
                  OFFSET 3.37035 -0.52449 3.41376
                  CHANNELS 3 Zrotation Xrotation Yrotation
                  End Site
                  {
                    OFFSET 1.78271 -1.18214 1.43049
                  }
                }
              }
              JOINT lIndex1
              {
                OFFSET 7.75947 0.938293 5.60832
                CHANNELS 3 Zrotation Xrotation Yrotation
                JOINT lIndex2
                {
                  OFFSET 2.54057 -0.884171 1.56538
                  CHANNELS 3 Zrotation Xrotation Yrotation
                  End Site
                  {
                    OFFSET 1.62519 -0.234802 1.16502
                  }
                }
              }
              JOINT lMid1
              {
                OFFSET 8.24714 1.18213 3.41376
                CHANNELS 3 Zrotation Xrotation Yrotation
                JOINT lMid2
                {
                  OFFSET 3.10165 -0.590103 1.0647
                  CHANNELS 3 Zrotation Xrotation Yrotation
                  End Site
                  {
                    OFFSET 2.48547 -0.328903 0.83742
                  }
                }
              }
              JOINT lRing1
              {
                OFFSET 8.82822 0.546677 1.51678
                CHANNELS 3 Zrotation Xrotation Yrotation
                JOINT lRing2
                {
                  OFFSET 2.60934 -0.819778 -0.0198488
                  CHANNELS 3 Zrotation Xrotation Yrotation
                  End Site
                  {
                    OFFSET 2.33842 -0.294052 0.168128
                  }
                }
              }
              JOINT lPinky1
              {
                OFFSET 8.27202 -0.0477905 -0.4584
                CHANNELS 3 Zrotation Xrotation Yrotation
                JOINT lPinky2
                {
                  OFFSET 1.82734 -0.647385 -0.700984
                  CHANNELS 3 Zrotation Xrotation Yrotation
                  End Site
                  {
                    OFFSET 1.69225 -0.51767 -0.607171
                  }
                }
              }
            }
          }
        }
      }
    }
  }
  JOINT rButtock
  {
    OFFSET -8.77824 4.35084 1.2192
    CHANNELS 3 Zrotation Xrotation Yrotation
    JOINT rThigh
    {
      OFFSET 0 -1.70687 -2.19456
      CHANNELS 3 Zrotation Xrotation Yrotation
      JOINT rShin
      {
        OFFSET 0 -36.8199 0.73152
        CHANNELS 3 Zrotation Xrotation Yrotation
        JOINT rFoot
        {
          OFFSET 0.73152 -45.1104 -5.12064
          CHANNELS 3 Zrotation Xrotation Yrotation
          End Site
          {
            OFFSET -1.1221 -3.69964 12.103
          }
        }
      }
    }
  }
  JOINT lButtock
  {
    OFFSET 8.77824 4.35084 1.2192
    CHANNELS 3 Zrotation Xrotation Yrotation
    JOINT lThigh
    {
      OFFSET 0 -1.70687 -2.19456
      CHANNELS 3 Zrotation Xrotation Yrotation
      JOINT lShin
      {
        OFFSET 0 -36.8199 0.73152
        CHANNELS 3 Zrotation Xrotation Yrotation
        JOINT lFoot
        {
          OFFSET -0.73152 -45.1104 -5.12064
          CHANNELS 3 Zrotation Xrotation Yrotation
          End Site
          {
            OFFSET 1.1221 -3.69964 12.103
          }
        }
      }
    }
  }
}
MOTION
Frames:	4
Frame Time:	0.00833333
55.2496 71.7858 137.033 -178.679 1.0404 198.483 3.12138 16.0203 -1.25371 1.82016 -13.6883 -0.133798 -4.45814 4.32326 -1.61986 10.5869 -42.4304 4.0604 -0.0 0.0 0.0 -0.0 0.0 0.0 3.27676e-14 -3.49649e-14 5.12356e-14 22.3376 0.60184 -44.6189 -14.5269 -7.38706 26.6214 -1.37603 31.3322 4.90748 8.62541e-11 3.64209e-10 4.32876e-10 1.55774e-10 6.2675e-10 7.47027e-10 8.62691e-11 3.64205e-10 4.32864e-10 7.73091 5.47488 0.417314 8.62543e-11 3.64205e-10 4.3287e-10 2.90554 0.965183 0.102902 8.62665e-11 3.64204e-10 4.32871e-10 10.2786 0.731801 0.0259123 8.62519e-11 3.64209e-10 4.32881e-10 2.22167 -0.733487 -0.20892 3.27752e-14 -3.49578e-14 5.09937e-14 -13.0264 -23.6763 42.0043 17.776 -10.4474 -33.5207 0.00911017 2.74544 -0.38614 -3.90453e-10 -9.58834e-10 -1.46252e-10 -6.76715e-10 -1.65723e-09 -2.51695e-10 -3.90453e-10 -9.58834e-10 -1.46239e-10 -7.73091 5.47488 -0.417314 -3.90451e-10 -9.58835e-10 -1.46257e-10 -2.90554 0.965183 -0.102902 -3.90451e-10 -9.58834e-10 -1.46256e-10 -10.2786 0.731801 -0.0259123 -3.9045e-10 -9.58833e-10 -1.46268e-10 -2.22167 -0.733487 0.20892 -2.03217e-16 0.0 -3.88251e-19 4.87338 -54.3611 -5.65491 -1.33228 66.4083 2.67735 -13.9089 -25.1429 -23.5384 2.03217e-16 0.0 3.88251e-19 10.4314 -56.4069 18.752 1.45997 66.0991 -2.30692 7.23095 -27.1133 12.1359
55.2151 71.2833 137.076 -179.086 0.7497 198.942 2.79485 15.8109 -1.12097 1.96139 -13.61 -0.101498 -4.45477 4.10157 -1.93466 10.8495 -43.3325 3.86832 -0.0 0.0 0.0 -0.0 0.0 0.0 2.32574e-14 -2.51267e-13 8.23962e-14 25.2304 -0.211021 -44.0969 -14.4035 -7.28469 26.3694 -1.42625 31.8136 5.0017 1.80325e-10 4.66043e-10 -9.03755e-11 3.03008e-10 7.94681e-10 -1.56733e-10 1.80341e-10 4.66038e-10 -9.0385e-11 7.73091 5.47488 0.417314 1.80324e-10 4.6604e-10 -9.03818e-11 2.90554 0.965183 0.102902 1.80339e-10 4.66037e-10 -9.03794e-11 10.2786 0.731801 0.0259123 1.80324e-10 4.66043e-10 -9.03691e-11 2.22167 -0.733487 -0.20892 2.32597e-14 -2.51261e-13 8.21478e-14 -16.5971 -24.0076 40.8655 17.7578 -10.4286 -33.479 0.0110107 2.99454 -0.421243 -6.82989e-10 -3.02114e-09 -1.98721e-11 -1.18437e-09 -5.22354e-09 -3.14088e-11 -6.82987e-10 -3.02114e-09 -1.98594e-11 -7.73091 5.47488 -0.417314 -6.82987e-10 -3.02114e-09 -1.98785e-11 -2.90554 0.965183 -0.102902 -6.82982e-10 -3.02114e-09 -1.98769e-11 -10.2786 0.731801 -0.0259123 -6.82983e-10 -3.02114e-09 -1.98912e-11 -2.22167 -0.733487 0.20892 -2.03217e-16 0.0 -3.88251e-19 4.34296 -56.0371 -6.39043 -1.48262 67.9483 2.86771 -14.3265 -25.3833 -23.9359 2.03217e-16 0.0 3.88251e-19 10.6533 -58.1198 18.9462 1.59416 67.3828 -2.44256 7.11048 -27.4122 11.8351
55.2711 70.732 137.281 -179.26 0.3759 199.655 2.45113 15.5537 -1.05123 2.20827 -13.7315 -0.0738331 -4.55881 4.07567 -2.29439 11.4237 -44.2571 3.92072 -0.0 0.0 0.0 -0.0 0.0 0.0 2.68508e-14 -2.87545e-13 9.22505e-14 28.247 -0.793496 -43.3198 -14.2481 -7.15727 26.0529 -1.45024 32.0343 5.04553 2.17249e-10 5.00044e-10 -1.48686e-10 3.65579e-10 8.52726e-10 -2.58593e-10 2.17263e-10 5.00039e-10 -1.48696e-10 7.73091 5.47488 0.417314 2.17247e-10 5.00042e-10 -1.48694e-10 2.90554 0.965183 0.102902 2.17263e-10 5.00038e-10 -1.48691e-10 10.2786 0.731801 0.0259123 2.17249e-10 5.00043e-10 -1.48682e-10 2.22167 -0.733487 -0.20892 2.69027e-14 -2.87539e-13 9.20222e-14 -20.5138 -23.8462 39.5731 17.7133 -10.3815 -33.3805 0.0112865 2.90143 -0.408201 -7.66118e-10 -3.33523e-09 3.09942e-11 -1.32837e-09 -5.76724e-09 5.7149e-11 -7.66117e-10 -3.33523e-09 3.10068e-11 -7.73091 5.47488 -0.417314 -7.66116e-10 -3.33523e-09 3.09874e-11 -2.90554 0.965183 -0.102902 -7.66113e-10 -3.33523e-09 3.09906e-11 -10.2786 0.731801 -0.0259123 -7.66112e-10 -3.33523e-09 3.09762e-11 -2.22167 -0.733487 0.20892 -2.03217e-16 0.0 -3.88251e-19 3.79909 -57.851 -7.13376 -1.64742 69.4064 3.06405 -14.6073 -25.4539 -24.2106 2.03217e-16 0.0 3.88251e-19 10.9309 -59.9884 19.1862 1.74289 68.6417 -2.59077 6.97183 -27.4907 11.565
55.4348 70.0706 137.691 -179.018 -0.2246 200.77 2.07363 15.2573 -1.00889 2.53266 -13.9821 -0.0452256 -4.73771 4.18156 -2.69636 12.2336 -45.204 4.13296 -0.0 0.0 0.0 -0.0 0.0 0.0 3.76623e-14 -2.28206e-13 9.1823e-14 31.4091 -1.24367 -42.3186 -14.0673 -7.01007 25.6873 -1.45481 32.0736 5.05349 2.24469e-10 4.9652e-10 4.72786e-11 3.84618e-10 8.50025e-10 7.80121e-11 2.24479e-10 4.96516e-10 4.72646e-11 7.73091 5.47488 0.417314 2.24463e-10 4.9652e-10 4.72668e-11 2.90554 0.965183 0.102902 2.24482e-10 4.96515e-10 4.72714e-11 10.2786 0.731801 0.0259123 2.24468e-10 4.96519e-10 4.72754e-11 2.22167 -0.733487 -0.20892 3.77976e-14 -2.28203e-13 9.16304e-14 -24.726 -23.2997 38.1142 17.6426 -10.3068 -33.2253 0.0109934 2.62755 -0.369751 -7.2546e-10 -2.67498e-09 4.58475e-11 -1.25746e-09 -4.6263e-09 8.27791e-11 -7.25462e-10 -2.67498e-09 4.58594e-11 -7.73091 5.47488 -0.417314 -7.25459e-10 -2.67498e-09 4.58407e-11 -2.90554 0.965183 -0.102902 -7.25461e-10 -2.67498e-09 4.58463e-11 -10.2786 0.731801 -0.0259123 -7.25455e-10 -2.67498e-09 4.58328e-11 -2.22167 -0.733487 0.20892 -2.03217e-16 0.0 -3.88251e-19 3.22649 -59.7449 -7.88323 -1.82666 70.7958 3.26944 -14.7881 -25.4126 -24.3904 2.03217e-16 0.0 3.88251e-19 11.2719 -61.9611 19.515 1.90822 69.8814 -2.75359 6.80757 -27.4063 11.2942
